<svg width="36" height="36" viewBox="0 0 36 36" fill="none" xmlns="http://www.w3.org/2000/svg">
<path d="M24.5846 28.2205C23.0489 28.2205 21.8086 26.9802 21.8086 25.4445C21.8086 23.9088 23.0489 22.6685 24.5846 22.6685C26.1203 22.6685 27.3606 23.9088 27.3606 25.4445C27.3606 26.9802 26.1203 28.2205 24.5846 28.2205ZM24.5846 23.9088C23.6986 23.9088 22.9899 24.6176 22.9899 25.5036C22.9899 26.3895 23.6986 27.0983 24.5846 27.0983C25.4706 27.0983 26.1793 26.3895 26.1793 25.5036C26.1793 24.6176 25.4706 23.9088 24.5846 23.9088Z" fill="#1D1D1D"/>
<path d="M28.8966 28.2204C27.361 28.2204 26.1206 26.9801 26.1206 25.4444C26.1206 23.9087 27.361 22.6684 28.8966 22.6684C30.4323 22.6684 31.6726 23.9087 31.6726 25.4444C31.6726 26.9801 30.4323 28.2204 28.8966 28.2204ZM28.8966 23.9087C28.0107 23.9087 27.3019 24.6175 27.3019 25.5035C27.3019 26.3894 28.0107 27.0982 28.8966 27.0982C29.7826 27.0982 30.4914 26.3894 30.4914 25.5035C30.4914 24.6175 29.7826 23.9087 28.8966 23.9087Z" fill="#1D1D1D"/>
<path d="M7.10169 28.2206C5.56602 28.2206 4.32568 26.9803 4.32568 25.4446C4.32568 23.9089 5.56602 22.6686 7.10169 22.6686C8.63735 22.6686 9.87771 23.9089 9.87771 25.4446C9.87771 26.9803 8.57829 28.2206 7.10169 28.2206ZM7.10169 23.9089C6.21572 23.9089 5.50697 24.6177 5.50697 25.5037C5.50697 26.3896 6.21572 27.0984 7.10169 27.0984C7.98765 27.0984 8.69642 26.3896 8.69642 25.5037C8.63736 24.6177 7.92858 23.9089 7.10169 23.9089Z" fill="#1D1D1D"/>
<path d="M11.4137 28.2205C9.87805 28.2205 8.6377 26.9802 8.6377 25.4445C8.6377 23.9088 9.87805 22.6685 11.4137 22.6685C12.9494 22.6685 14.1897 23.9088 14.1897 25.4445C14.1897 26.9802 12.9494 28.2205 11.4137 28.2205ZM11.4137 23.9088C10.5278 23.9088 9.81898 24.6176 9.81898 25.5036C9.81898 26.3895 10.5278 27.0983 11.4137 27.0983C12.2997 27.0983 13.0084 26.3895 13.0084 25.5036C12.9494 24.6176 12.2997 23.9088 11.4137 23.9088Z" fill="#1D1D1D"/>
<path d="M32.1445 24.947H3.79372C2.49431 24.947 1.43115 23.7325 1.43115 22.2481V10.5755C1.43115 9.09114 2.49431 7.87665 3.79372 7.87665H32.1445C33.4439 7.87665 34.5071 9.09114 34.5071 10.5755V22.2481C34.5661 23.7325 33.503 24.947 32.1445 24.947Z" fill="white"/>
<path d="M32.1448 25.6217H3.85311C2.19931 25.6217 0.899902 24.0699 0.899902 22.2481V10.5755C0.899902 8.68633 2.25838 7.20195 3.85311 7.20195H32.1448C33.7986 7.20195 35.098 8.7538 35.098 10.5755V22.2481C35.1571 24.0699 33.7986 25.6217 32.1448 25.6217ZM3.85311 8.48391C2.84902 8.48391 2.08118 9.42851 2.08118 10.5081V22.1807C2.08118 23.3277 2.90808 24.2048 3.85311 24.2048H32.1448C33.1489 24.2048 33.9168 23.2602 33.9168 22.1807V10.5081C33.9168 9.36104 33.0899 8.48391 32.1448 8.48391H3.85311Z" fill="#1D1D1D"/>
<path d="M15.902 16.675H12.8897C12.5353 16.675 12.2991 16.4387 12.2991 16.0843V13.0721C12.2991 12.7177 12.5353 12.4814 12.8897 12.4814H15.902C16.2564 12.4814 16.4926 12.7177 16.4926 13.0721V16.0843C16.4926 16.3796 16.2564 16.675 15.902 16.675Z" fill="#FED9D5"/>
<path d="M15.9023 17.2655H12.89C12.2403 17.2655 11.7087 16.734 11.7087 16.0843V13.072C11.7087 12.4223 12.2403 11.8907 12.89 11.8907H15.9023C16.552 11.8907 17.0836 12.4223 17.0836 13.072V16.0843C17.0836 16.734 16.552 17.2655 15.9023 17.2655ZM12.9491 13.072V16.0843H15.9613V13.072H12.9491Z" fill="#1D1D1D"/>
<path d="M8.81434 16.675H5.80207C5.44768 16.675 5.21143 16.4387 5.21143 16.0843V13.0721C5.21143 12.7177 5.44768 12.4814 5.80207 12.4814H8.81434C9.16873 12.4814 9.40498 12.7177 9.40498 13.0721V16.0843C9.40498 16.3796 9.10966 16.675 8.81434 16.675Z" fill="#FED9D5"/>
<path d="M8.81441 17.2655H5.80213C5.15243 17.2655 4.62085 16.734 4.62085 16.0843V13.072C4.62085 12.4223 5.15243 11.8907 5.80213 11.8907H8.81441C9.46411 11.8907 9.99569 12.4223 9.99569 13.072V16.0843C9.99569 16.734 9.46411 17.2655 8.81441 17.2655ZM5.80213 13.072V16.0843H8.81441V13.072H5.80213Z" fill="#1D1D1D"/>
<path d="M23.0485 16.675H20.0362C19.6818 16.675 19.4456 16.4387 19.4456 16.0843V13.0721C19.4456 12.7177 19.6818 12.4814 20.0362 12.4814H23.0485C23.4028 12.4814 23.6391 12.7177 23.6391 13.0721V16.0843C23.6391 16.3796 23.4028 16.675 23.0485 16.675Z" fill="#FED9D5"/>
<path d="M23.0485 17.2655H20.0363C19.3866 17.2655 18.855 16.734 18.855 16.0843V13.072C18.855 12.4223 19.3866 11.8907 20.0363 11.8907H23.0485C23.6982 11.8907 24.2298 12.4223 24.2298 13.072V16.0843C24.2298 16.734 23.6982 17.2655 23.0485 17.2655ZM20.0953 13.072V16.0843H23.1076V13.072H20.0953Z" fill="#1D1D1D"/>
<path d="M30.1957 16.675H27.1834C26.829 16.675 26.5928 16.4387 26.5928 16.0843V13.0721C26.5928 12.7177 26.829 12.4814 27.1834 12.4814H30.1957C30.5501 12.4814 30.7863 12.7177 30.7863 13.0721V16.0843C30.7863 16.3796 30.491 16.675 30.1957 16.675Z" fill="#FED9D5"/>
<path d="M30.196 17.2655H27.1837C26.534 17.2655 26.0024 16.734 26.0024 16.0843V13.072C26.0024 12.4223 26.534 11.8907 27.1837 11.8907H30.196C30.8457 11.8907 31.3773 12.4223 31.3773 13.072V16.0843C31.3773 16.734 30.8457 17.2655 30.196 17.2655ZM27.1837 13.072V16.0843H30.196V13.072H27.1837Z" fill="#1D1D1D"/>
<path d="M23.4622 22.7866H17.733C17.3786 22.7866 17.1423 22.5503 17.1423 22.196C17.1423 21.8416 17.3786 21.6053 17.733 21.6053H23.4622C23.8166 21.6053 24.0528 21.8416 24.0528 22.196C24.0528 22.5503 23.8166 22.7866 23.4622 22.7866Z" fill="#1D1D1D"/>
<path d="M15.4295 22.7867H13.067C12.7126 22.7867 12.4763 22.5504 12.4763 22.196C12.4763 21.8416 12.7126 21.6054 13.067 21.6054H15.4295C15.7839 21.6054 16.0202 21.8416 16.0202 22.196C16.0202 22.5504 15.7839 22.7867 15.4295 22.7867Z" fill="#1D1D1D"/>
<path d="M8.10009 15.4243C12.1799 15.4243 15.4873 12.1169 15.4873 8.03707C15.4873 3.95724 12.1799 0.649857 8.10009 0.649857C4.02025 0.649857 0.712891 3.95724 0.712891 8.03707C0.712891 12.1169 4.02025 15.4243 8.10009 15.4243Z" fill="#D63941"/>
<path d="M8.01005 11.9719C7.90763 11.9719 7.81867 11.9343 7.74316 11.859C7.66793 11.7835 7.63032 11.6946 7.63032 11.5922V11.2398C6.89488 11.1553 6.25752 10.8433 5.71824 10.3037C5.17867 9.76441 4.86664 9.12704 4.78216 8.39161H4.42977C4.32736 8.39161 4.23839 8.35399 4.16288 8.27877C4.08766 8.20326 4.05005 8.1143 4.05005 8.01188C4.05005 7.90946 4.08766 7.8205 4.16288 7.74499C4.23839 7.66976 4.32736 7.63215 4.42977 7.63215H4.78216C4.86664 6.89671 5.17867 6.25935 5.71824 5.72007C6.25752 5.1805 6.89488 4.86847 7.63032 4.78399V4.43161C7.63032 4.32919 7.66793 4.24022 7.74316 4.16471C7.81867 4.08949 7.90763 4.05188 8.01005 4.05188C8.11247 4.05188 8.20143 4.08949 8.27694 4.16471C8.35216 4.24022 8.38978 4.32919 8.38978 4.43161V4.78399C9.12521 4.86847 9.76258 5.1805 10.3019 5.72007C10.8414 6.25935 11.1535 6.89671 11.2379 7.63215H11.5903C11.6927 7.63215 11.7817 7.66976 11.8572 7.74499C11.9324 7.8205 11.97 7.90946 11.97 8.01188C11.97 8.1143 11.9324 8.20326 11.8572 8.27877C11.7817 8.35399 11.6927 8.39161 11.5903 8.39161H11.2379C11.1535 9.12704 10.8414 9.76441 10.3019 10.3037C9.76258 10.8433 9.12521 11.1553 8.38978 11.2398V11.5922C8.38978 11.6946 8.35216 11.7835 8.27694 11.859C8.20143 11.9343 8.11247 11.9719 8.01005 11.9719ZM8.01005 10.4981C8.70325 10.4981 9.29085 10.257 9.77285 9.77468C10.2551 9.29268 10.4963 8.70508 10.4963 8.01188C10.4963 7.31868 10.2551 6.73108 9.77285 6.24908C9.29085 5.7668 8.70325 5.52565 8.01005 5.52565C7.31685 5.52565 6.72925 5.7668 6.24725 6.24908C5.76496 6.73108 5.52382 7.31868 5.52382 8.01188C5.52382 8.70508 5.76496 9.29268 6.24725 9.77468C6.72925 10.257 7.31685 10.4981 8.01005 10.4981ZM8.01005 9.48565C7.60617 9.48565 7.25957 9.34099 6.97025 9.05168C6.68094 8.76236 6.53628 8.41576 6.53628 8.01188C6.53628 7.608 6.68094 7.2614 6.97025 6.97208C7.25957 6.68277 7.60617 6.53811 8.01005 6.53811C8.41393 6.53811 8.76053 6.68277 9.04985 6.97208C9.33916 7.2614 9.48382 7.608 9.48382 8.01188C9.48382 8.41576 9.33916 8.76236 9.04985 9.05168C8.76053 9.34099 8.41393 9.48565 8.01005 9.48565ZM8.01005 8.7262C8.20302 8.7262 8.37025 8.65532 8.51172 8.51355C8.65349 8.37208 8.72437 8.20485 8.72437 8.01188C8.72437 7.81891 8.65349 7.65168 8.51172 7.51021C8.37025 7.36844 8.20302 7.29756 8.01005 7.29756C7.81708 7.29756 7.64985 7.36844 7.50838 7.51021C7.36661 7.65168 7.29573 7.81891 7.29573 8.01188C7.29573 8.20485 7.36661 8.37208 7.50838 8.51355C7.64985 8.65532 7.81708 8.7262 8.01005 8.7262Z" fill="white"/>
<path d="M8.1 1.29795C11.7936 1.29795 14.8392 4.34357 14.8392 8.03717C14.8392 11.7308 11.7936 14.7764 8.1 14.7764C4.4064 14.7764 1.3608 11.7308 1.3608 8.03717C1.3608 4.34357 4.4064 1.29795 8.1 1.29795ZM8.1 0.00195312C3.6288 0.00195312 0 3.63075 0 8.10195C0 12.5732 3.6288 16.202 8.1 16.202C12.5712 16.202 16.2 12.5732 16.2 8.10195C16.2 3.63075 12.5712 0.00195312 8.1 0.00195312Z" fill="white"/>
</svg>
