<svg xmlns="http://www.w3.org/2000/svg" width="168" height="172" viewBox="0 0 168 172" fill="none">
    <path fill-rule="evenodd" clip-rule="evenodd" d="M119.527 -5.95415C163.447 -5.20055 208.432 -5.49157 223.951 35.3649C241.761 82.2524 240.97 131.31 199.321 159.548C160.336 185.98 111.919 162.238 73.7503 134.654C35.6203 107.098 -11.1739 91.9799 3.3878 47.4058C17.9526 2.82216 72.3847 -6.76302 119.527 -5.95415Z" fill="#D63941" fill-opacity="0.05"/>
    <path fill-rule="evenodd" clip-rule="evenodd" d="M119.527 -5.95415C163.447 -5.20055 208.432 -5.49157 223.951 35.3649C241.761 82.2524 240.97 131.31 199.321 159.548C160.336 185.98 111.919 162.238 73.7503 134.654C35.6203 107.098 -11.1739 91.9799 3.3878 47.4058C17.9526 2.82216 72.3847 -6.76302 119.527 -5.95415Z" fill="#D63941" fill-opacity="0.05"/>
    <path opacity="0.2" d="M38.2048 99.4349C38.2048 99.4349 33.754 101.546 29.6185 105.227C25.6063 108.797 41.7551 112.074 59.4929 111.597C63.4736 111.49 75.0168 110.426 80.9142 103.536L105.108 73.7292L54.9535 80.8604L38.2048 99.4349Z" fill="#291F3D"/>
    <path d="M105.13 72.7438C105.098 72.9197 105.021 73.0818 104.904 73.214C103.02 75.3348 86.4152 93.959 78.1973 100.307C72.3818 104.799 61.7083 106.066 55.3781 105.996C43.5915 105.865 29.6226 104.371 29.3412 91.7026C29.0723 79.5773 36.6058 45.7058 41.2768 38.3747C44.2213 33.753 65.329 32.5604 75.9636 35.299C76.8706 35.5323 80.0089 36.5404 82.2541 38.9512C86.3689 43.3713 90.2594 47.776 94.0183 52.0357C97.74 56.2525 101.295 60.3654 104.664 64.3617C104.943 64.692 105.12 65.0987 105.176 65.5328C105.471 67.8235 105.537 70.5046 105.13 72.7447L105.13 72.7438Z" fill="#E53C4A"/>
    <path d="M55.3735 105.996C43.587 105.864 29.6181 104.371 29.3367 91.7024C29.0677 79.5772 36.6013 45.7057 41.2722 38.3746C44.2168 33.7528 65.3245 32.5603 75.959 35.2989C76.6766 35.4833 78.7894 36.1534 80.7525 37.6179C80.7624 37.6256 80.7715 37.6325 80.7814 37.6393C80.8029 37.6556 80.8245 37.6719 80.8468 37.6882C81.7795 56.158 81.0918 74.7753 78.7919 93.1163C78.1075 98.5737 74.2583 103.031 69.1082 104.366H69.1058C64.2701 105.621 59.0787 106.038 55.3744 105.997L55.3735 105.996Z" fill="#C4293E"/>
    <path d="M41.2737 38.3746C44.2182 33.7528 65.326 32.5603 75.9605 35.2989C76.6557 35.4782 78.6609 36.1122 80.5702 37.4832C80.4659 37.4437 77.3707 36.3147 76.1624 38.9794C75.4813 40.4808 75.046 43.01 75.046 43.01V43.0083C73.2104 54.6943 70.5853 68.1211 68.4021 78.2928C67.1897 83.9423 65.9764 89.8424 62.431 94.314C58.9477 98.7075 53.4839 101.14 47.9987 101.262C45.1029 101.328 37.1556 101.51 30.4148 96.79C30.395 96.7454 30.366 96.7051 30.3296 96.669C29.7279 95.2414 29.3795 93.5967 29.3373 91.7015C29.0683 79.5763 36.6019 45.7048 41.2728 38.3737L41.2737 38.3746Z" fill="#291F3D"/>
    <path d="M31.0334 75.5005C32.6903 65.7242 35.3195 54.4947 37.842 46.69C50.4876 45.8964 60.3409 45.7377 72.7241 47.1413C71.3685 55.2823 69.7167 63.9543 68.15 71.6088C67.507 74.7506 64.8852 77.0439 61.7884 77.1554C50.793 77.5526 40.0757 77.0207 31.0334 75.4996V75.5005Z" fill="#463861"/>
    <path d="M42.5882 53.0624L64.2024 53.3267C64.4167 53.3292 64.5972 53.1611 64.6178 52.9397L65.0498 48.306C65.073 48.0546 64.8827 47.8367 64.6385 47.8367H42.9995C42.7868 47.8367 42.6089 48.004 42.5882 48.2236L42.1802 52.5931C42.157 52.8428 42.3449 53.059 42.5866 53.0624H42.5882Z" fill="#FFBB00"/>
    <path d="M105.313 66.8301L81.2535 48.8236C81.0515 62.156 80.3878 74.6888 79.1547 86.2367L105.284 71.6791C105.443 70.2 105.475 68.4413 105.313 66.8292V66.8301Z" fill="#291F3D"/>
    <path d="M79.1565 86.238C76.5074 87.4863 73.8128 88.3442 71.0751 88.8264C69.9802 89.0194 69.0302 88.0328 69.2296 86.8995L76.1027 47.7611C76.2153 47.1219 76.8492 46.7393 77.4434 46.9478C78.6881 47.3862 79.9585 48.009 81.2561 48.8241C81.2561 48.8241 81.3869 66.8211 79.1574 86.2371L79.1565 86.238Z" fill="#32294C"/>
    <path d="M37.8471 46.689C41.8791 46.4359 45.6281 46.2471 49.2654 46.1536C49.4566 43.8106 49.6428 41.4272 49.8249 38.9924C50.1112 34.8082 47.8063 35.1908 46.5815 35.5211C46.5029 35.5426 46.4284 35.5632 46.3597 35.5829C46.3498 35.5855 46.3407 35.5881 46.3307 35.5915C43.8289 36.3062 42.0008 37.2362 41.275 38.3755C40.2347 40.0082 39.0529 42.9569 37.8471 46.689Z" fill="#453A6B"/>
    <path d="M42.5825 53.0615L48.6654 53.1362C48.8209 51.3885 48.9732 49.6238 49.1222 47.8367H42.9947C42.782 47.8367 42.6049 48.004 42.5842 48.2236L42.1762 52.5922C42.153 52.8419 42.3409 53.059 42.5825 53.0615Z" fill="#FFC33D"/>
    <path d="M31.0455 75.4992C35.7189 76.285 40.8408 76.8067 46.2169 77.0726C47.1405 69.1264 47.9474 61.3217 48.6765 53.1361L42.5937 53.0615C42.352 53.0589 42.1642 52.8418 42.1873 52.5922L42.5953 48.2235C42.616 48.0039 42.7931 47.8366 43.0058 47.8366H49.1333C49.1796 47.2781 49.226 46.717 49.2723 46.1533C45.6351 46.2468 41.8861 46.4356 37.8541 46.6887H37.8532C35.3307 54.4942 32.7023 65.7238 31.0455 75.4992Z" fill="#5E5087"/>
    <path d="M29.341 91.7023C29.3824 93.5975 29.7316 95.2422 30.3324 96.6698C30.3697 96.7067 30.3978 96.7462 30.4185 96.7908C34.6756 99.773 39.4144 100.798 43.0575 101.133C43.0873 101.135 43.117 101.138 43.146 101.141C44.303 92.6649 45.3118 84.8019 46.2106 77.0719C40.8346 76.8059 35.7126 76.2843 31.0392 75.4984C29.9311 82.0376 29.2574 87.9248 29.341 91.7023Z" fill="#453A6B"/>
    <path d="M62.1575 84.4286C61.2726 84.4286 60.5553 83.5939 60.5553 82.5643C60.5553 81.5346 61.2726 80.7 62.1575 80.7C63.0424 80.7 63.7598 81.5346 63.7598 82.5643C63.7598 83.5939 63.0424 84.4286 62.1575 84.4286Z" fill="#FFBB00"/>
    <path d="M58.5182 84.4286C57.9121 84.4286 57.4208 83.857 57.4208 83.152C57.4208 82.4469 57.9121 81.8754 58.5182 81.8754C59.1243 81.8754 59.6156 82.4469 59.6156 83.152C59.6156 83.857 59.1243 84.4286 58.5182 84.4286Z" fill="#FFBB00"/>
    <path d="M32.6107 83.1014C31.8177 83.1014 31.1748 82.2667 31.1748 81.2371C31.1748 80.2075 31.8177 79.3728 32.6107 79.3728C33.4037 79.3728 34.0465 80.2075 34.0465 81.2371C34.0465 82.2667 33.4037 83.1014 32.6107 83.1014Z" fill="#FFBB00"/>
    <path d="M32.6158 79.3728C32.6862 79.3728 32.7549 79.3797 32.8219 79.3925C32.1267 79.5229 31.593 80.2985 31.593 81.2371C31.593 82.1757 32.1276 82.9513 32.8219 83.0817C32.7549 83.0946 32.6854 83.1014 32.6158 83.1014C31.823 83.1014 31.18 82.2666 31.18 81.2371C31.18 80.2076 31.823 79.3728 32.6158 79.3728Z" fill="#C4293E"/>
    <path d="M35.3388 85.2313C34.7958 85.2313 34.3557 84.6598 34.3557 83.9547C34.3557 83.2497 34.7958 82.6781 35.3388 82.6781C35.8818 82.6781 36.322 83.2497 36.322 83.9547C36.322 84.6598 35.8818 85.2313 35.3388 85.2313Z" fill="#FFBB00"/>
    <path d="M35.338 82.6798C35.3877 82.6798 35.4365 82.6858 35.4845 82.6953C35.0111 82.7871 34.6486 83.3156 34.6486 83.9556C34.6486 84.5956 35.0119 85.1241 35.4845 85.2159C35.4365 85.2253 35.3877 85.2313 35.338 85.2313C34.7951 85.2313 34.3548 84.6599 34.3548 83.9547C34.3548 83.2495 34.7951 82.6781 35.338 82.6781V82.6798Z" fill="#C4293E"/>
    <path d="M62.1601 80.6976C62.2478 80.6976 62.333 80.7062 62.4166 80.7217C61.6536 80.8649 61.0709 81.6337 61.0709 82.5611C61.0709 83.4885 61.6536 84.2581 62.4166 84.4005C62.333 84.416 62.247 84.4245 62.1601 84.4245C61.2753 84.4245 60.5578 83.5898 60.5578 82.5602C60.5578 81.5307 61.2753 80.6959 62.1601 80.6959V80.6976Z" fill="#C4293E"/>
    <path d="M58.5055 81.8754C58.5941 81.8754 58.6802 81.8891 58.7621 81.9123C58.2804 82.047 57.9221 82.5497 57.9221 83.152C57.9221 83.7543 58.2804 84.257 58.7621 84.3917C58.6793 84.4149 58.5941 84.4286 58.5055 84.4286C57.8997 84.4286 57.4081 83.8572 57.4081 83.152C57.4081 82.4468 57.8989 81.8754 58.5055 81.8754Z" fill="#C4293E"/>
    <path d="M93.5026 57.9978L95.7678 59.6931C96.0996 65.4567 96.0839 71.2444 95.7214 77.0063L93.4803 78.2546C93.971 71.5164 93.9785 64.7369 93.5026 57.9978Z" fill="url(#paint0_linear_370_103317)"/>
    <path d="M96.7601 60.4265L97.2765 60.8134C97.5215 65.9353 97.4901 71.0727 97.1847 76.1911L96.6691 76.4785C97.001 71.137 97.0308 65.7723 96.7601 60.4274V60.4265Z" fill="url(#paint1_linear_370_103317)"/>
    <path fill-rule="evenodd" clip-rule="evenodd" d="M114.433 74.0135C114.255 74.0135 114.117 74.1609 114.117 74.3336V88.7687C114.117 88.9415 114.255 89.0889 114.433 89.0889H117.871C118.049 89.0889 118.186 88.9415 118.186 88.7687V74.3336C118.186 74.1609 118.049 74.0135 117.871 74.0135H114.433ZM113.164 74.3336C113.164 73.6069 113.736 73.0251 114.433 73.0251H117.871C118.567 73.0251 119.14 73.6069 119.14 74.3336V88.7687C119.14 89.4955 118.567 90.0772 117.871 90.0772H114.433C113.736 90.0772 113.164 89.4955 113.164 88.7687V74.3336Z" fill="#273238"/>
    <path d="M111.466 108.837C111.396 108.838 111.326 108.846 111.257 108.859C111.188 108.846 111.118 108.838 111.048 108.837C110.715 108.837 110.396 108.973 110.161 109.215C109.926 109.457 109.794 109.785 109.794 110.127C109.794 110.468 109.926 110.796 110.161 111.038C110.396 111.28 110.715 111.416 111.048 111.416C111.118 111.415 111.188 111.408 111.257 111.395C111.326 111.408 111.396 111.415 111.466 111.416C111.799 111.416 112.118 111.28 112.353 111.038C112.589 110.797 112.721 110.469 112.721 110.127C112.721 109.785 112.589 109.457 112.353 109.215C112.118 108.973 111.799 108.837 111.466 108.837Z" fill="#192023"/>
    <path d="M119.684 108.837C119.614 108.838 119.544 108.846 119.475 108.859C119.406 108.846 119.336 108.838 119.266 108.837C118.933 108.837 118.614 108.973 118.379 109.215C118.144 109.457 118.011 109.785 118.011 110.127C118.011 110.469 118.144 110.797 118.379 111.038C118.614 111.28 118.933 111.416 119.266 111.416C119.336 111.415 119.406 111.408 119.475 111.395C119.544 111.408 119.614 111.415 119.684 111.416C120.017 111.416 120.336 111.28 120.572 111.038C120.807 110.797 120.939 110.469 120.939 110.127C120.939 109.785 120.807 109.457 120.572 109.215C120.336 108.973 120.017 108.837 119.684 108.837Z" fill="#192023"/>
    <path d="M122.464 107.026V87.6004C122.464 86.3772 121.499 85.3856 120.309 85.3856H110.704C109.513 85.3856 108.548 86.3772 108.548 87.6004V107.026C108.548 108.249 109.513 109.241 110.704 109.241H120.309C121.499 109.241 122.464 108.249 122.464 107.026Z" fill="#1E3654"/>
    <path d="M113.585 111.416C114.278 111.416 114.84 110.839 114.84 110.127C114.84 109.414 114.278 108.837 113.585 108.837C112.892 108.837 112.33 109.414 112.33 110.127C112.33 110.839 112.892 111.416 113.585 111.416Z" fill="#3078B9"/>
    <path d="M114.004 111.416C114.697 111.416 115.259 110.839 115.259 110.127C115.259 109.414 114.697 108.837 114.004 108.837C113.311 108.837 112.749 109.414 112.749 110.127C112.749 110.839 113.311 111.416 114.004 111.416Z" fill="#1E3654"/>
    <path d="M121.806 111.416C122.499 111.416 123.061 110.839 123.061 110.127C123.061 109.414 122.499 108.837 121.806 108.837C121.113 108.837 120.552 109.414 120.552 110.127C120.552 110.839 121.113 111.416 121.806 111.416Z" fill="#3078B9"/>
    <path d="M122.221 111.416C122.914 111.416 123.476 110.839 123.476 110.127C123.476 109.414 122.914 108.837 122.221 108.837C121.528 108.837 120.967 109.414 120.967 110.127C120.967 110.839 121.528 111.416 122.221 111.416Z" fill="#1E3654"/>
    <path d="M125 107.026V87.6004C125 86.3772 124.035 85.3856 122.845 85.3856H113.24C112.049 85.3856 111.084 86.3772 111.084 87.6004V107.026C111.084 108.249 112.049 109.241 113.24 109.241H122.845C124.035 109.241 125 108.249 125 107.026Z" fill="#3078B9"/>
    <path fill-rule="evenodd" clip-rule="evenodd" d="M111.761 73.2596C111.761 72.7137 112.188 72.2712 112.715 72.2712H119.116C119.643 72.2712 120.07 72.7137 120.07 73.2596C120.07 73.8054 119.643 74.2479 119.116 74.2479H112.715C112.188 74.2479 111.761 73.8054 111.761 73.2596Z" fill="#273238"/>
    <path d="M109.108 73.2352C110.153 72.15 110.265 68.0437 109.54 65.0652C109.508 64.9267 109.472 64.789 109.436 64.6549C108.666 61.9135 106.608 62.6746 105.011 64.599C104.385 65.3602 103.874 66.2137 103.494 67.1308C102.099 70.5204 108.022 74.3648 109.108 73.2352Z" fill="#3E3E54"/>
    <path d="M105.363 71.4734C103.475 70.1778 101.925 68.0101 102.716 66.0839C103.722 63.6356 105.675 61.7094 107.069 61.7973C107.841 61.8444 108.419 62.4731 108.741 63.616C109.55 66.4977 109.556 71.0436 108.408 72.2407C108.268 72.3854 108.051 72.4556 107.779 72.4556C107.171 72.4556 106.289 72.1084 105.363 71.4734ZM108.653 63.6418C108.344 62.5406 107.794 61.935 107.063 61.8906C105.701 61.8115 103.791 63.7057 102.799 66.1203C102.029 67.9958 103.557 70.1218 105.413 71.3953C106.698 72.2771 107.929 72.6057 108.343 72.175C109.38 71.0933 109.537 66.7872 108.653 63.6418L108.697 63.6285L108.653 63.6418Z" fill="#44445B"/>
    <path d="M105.013 64.5961C106.516 65.5614 108.828 65.6138 109.542 65.0623C109.51 64.9238 109.474 64.7862 109.438 64.6521C108.668 61.9107 106.61 62.6691 105.013 64.5961Z" fill="#3E3E54"/>
    <path d="M105.188 58.9694C107.344 60.5395 110.25 62.8235 110.07 63.9575C109.89 65.0916 105.052 64.9459 104.119 62.399C103.187 59.8521 101.971 56.625 105.188 58.9694Z" fill="#3E3E54"/>
    <path d="M99.2217 53.1658C99.3289 52.8954 99.5325 52.6773 99.7909 52.556C100.049 52.4347 100.343 52.4193 100.612 52.5131C100.686 52.5389 100.761 52.5602 100.835 52.585C100.971 52.4536 101.136 52.3588 101.316 52.3089C101.263 52.103 101.276 51.8854 101.351 51.6872C101.458 51.4169 101.661 51.1988 101.92 51.0775C102.178 50.9562 102.472 50.9408 102.74 51.0345C103.115 51.1642 103.491 51.2853 103.869 51.3977C104.142 51.4789 104.374 51.6639 104.519 51.9151C104.663 52.1662 104.709 52.4646 104.647 52.7493C104.599 52.9409 104.5 53.1148 104.361 53.2515C104.221 53.3882 104.048 53.4822 103.86 53.5228C103.902 53.6924 103.904 53.8699 103.866 54.0406C103.731 54.6284 103.109 54.9845 102.493 54.8016C102.407 54.7758 102.321 54.7456 102.234 54.719C102.091 54.858 101.914 54.9557 101.723 55.0025C101.531 55.0492 101.331 55.0434 101.142 54.9854C100.732 54.8641 100.325 54.7329 99.9216 54.592C99.3202 54.3824 99.0074 53.7262 99.2217 53.1658Z" fill="#1E3654"/>
    <path d="M94.5268 46.8262C95.1706 46.2294 96.2144 46.3316 96.8124 47.0828C97.2111 47.5825 97.598 48.091 97.973 48.6085C98.539 49.3864 98.3835 50.4521 97.6654 50.9503C97.5995 50.9944 97.5308 51.0338 97.4597 51.0683C97.5012 51.2498 97.4982 51.439 97.451 51.6189C97.4037 51.7989 97.3138 51.9639 97.1892 52.0994C96.7822 52.5354 96.071 52.5176 95.6337 52.039C95.3417 51.7199 95.0562 51.3943 94.7774 51.0621C94.6019 50.8633 94.5016 50.6064 94.4946 50.3381C94.4876 50.0697 94.5745 49.8077 94.7393 49.5995C94.6192 49.4441 94.5 49.2887 94.3773 49.1351C94.1111 48.8032 93.9784 48.3793 94.0062 47.9501C94.034 47.521 94.2202 47.119 94.5268 46.8262Z" fill="#1E3654"/>
    <path d="M92.1072 64.6286L94.9096 57.7018C95.0404 57.1024 95.352 56.5606 95.8 56.1538C96.2479 55.7471 96.8094 55.496 97.4044 55.4365L100.457 54.7953L104.499 55.5217C105.237 55.6 105.916 55.9706 106.392 56.5549C106.868 57.1391 107.104 57.891 107.05 58.6512L106.782 62.3614L106.23 69.9914L106.111 71.6396H93.8597L94.1354 67.877L94.9641 65.1783C94.589 65.3861 93.7456 67.0352 92.9765 66.6311C92.2342 66.2448 91.8099 65.4216 92.1072 64.6286Z" fill="#3078B9"/>
    <path opacity="0.3" d="M94.141 67.8771L96.6764 64.7885L94.7277 66.1933L94.141 67.8771Z" fill="#1E3654"/>
    <path opacity="0.3" d="M106.055 60.8686L104.904 67.1639C104.84 67.5176 104.648 67.8334 104.367 68.0483C104.086 68.2632 103.737 68.3615 103.389 68.3237L96.4504 67.568C96.1006 67.53 95.7777 67.3575 95.5466 67.0851C95.3155 66.8126 95.1932 66.4604 95.2043 66.0991L95.2276 65.3692C95.2334 65.1812 95.2752 64.9963 95.3506 64.825C95.426 64.6536 95.5334 64.4992 95.6669 64.3706C95.8003 64.2419 95.9572 64.1415 96.1284 64.0752C96.2996 64.0088 96.4818 63.9778 96.6647 63.9838L100.299 64.1046C100.585 64.1141 100.867 64.033 101.106 63.8722C101.346 63.7114 101.531 63.4788 101.637 63.2059L103.031 59.6342C103.12 59.4052 103.266 59.2038 103.453 59.0496C103.64 58.8953 103.863 58.7934 104.1 58.7537C104.337 58.7141 104.58 58.738 104.805 58.8232C105.03 58.9083 105.23 59.0519 105.386 59.2399L105.748 59.6786C105.882 59.841 105.979 60.0321 106.032 60.238C106.085 60.4438 106.093 60.6593 106.055 60.8686Z" fill="#1E3654"/>
    <path d="M103.036 55.0493C102.841 56.2205 102.748 57.4072 102.758 58.5953C102.76 59.7776 102.874 60.9569 103.099 62.1164C103.324 63.2811 103.711 64.4066 104.248 65.458C104.523 65.9801 104.844 66.4756 105.206 66.9384C105.573 67.396 105.982 67.8164 106.426 68.1941L106.661 67.909C106.253 67.5316 105.881 67.1154 105.55 66.6658C105.226 66.2116 104.942 65.7283 104.702 65.2218C104.233 64.1996 103.911 63.1133 103.744 61.9965C103.576 60.8769 103.515 59.7431 103.561 58.6113C103.6 57.485 103.735 56.3645 103.964 55.2624L103.036 55.0493Z" fill="#3E3E54"/>
    <path d="M101.813 55.3082C101.847 55.7175 101.723 56.1243 101.467 56.4395C101.21 56.7547 100.843 56.9527 100.445 56.9902C100.213 57.0129 99.9799 56.9788 99.7637 56.8907C99.5029 56.7855 99.2754 56.6081 99.1067 56.3781C98.938 56.1482 98.8346 55.8746 98.808 55.588V55.54L98.4485 51.4301C98.4149 51.0211 98.5397 50.615 98.7958 50.3C99.052 49.9851 99.4188 49.7868 99.8164 49.7482C99.8605 49.7482 99.9029 49.7411 99.9469 49.7411C100.324 49.7418 100.687 49.887 100.966 50.1483C101.244 50.4096 101.418 50.7681 101.453 51.154L101.671 53.6405L101.813 55.3082Z" fill="#FDBA7F"/>
    <path d="M101.671 53.6414C101.275 54.8349 100.187 55.6483 98.9851 55.5622C98.9257 55.5585 98.8665 55.5511 98.808 55.54L98.4485 51.4301C98.4149 51.0211 98.5397 50.615 98.7958 50.3C99.052 49.9851 99.4188 49.7868 99.8164 49.7482C99.8605 49.7482 99.9029 49.7411 99.9469 49.7411C100.324 49.7418 100.687 49.887 100.966 50.1483C101.244 50.4096 101.418 50.7681 101.453 51.154L101.671 53.6414Z" fill="#EB9F63"/>
    <path d="M105.824 56.4947C106.199 56.6349 106.506 56.922 106.676 57.2935C106.847 57.665 106.867 58.0907 106.734 58.4777L104.206 66.3626C104.07 66.7488 103.791 67.0639 103.429 67.2391C103.067 67.4143 102.653 67.4354 102.276 67.2977C101.901 67.1575 101.594 66.8704 101.424 66.4988C101.254 66.1273 101.233 65.7016 101.367 65.3147L103.894 57.4298C104.03 57.0436 104.31 56.7285 104.671 56.5533C105.033 56.3781 105.447 56.357 105.824 56.4947Z" fill="#3078B9"/>
    <path d="M99.3794 55.2763C97.8862 55.4299 96.9002 54.3456 96.6798 52.8315C96.5312 51.8094 96.0015 50.7535 95.8088 49.7394C95.5253 48.2368 96.4284 46.72 97.8827 46.3506C99.3388 45.983 100.848 47.0184 101.16 48.6666C101.368 49.7625 101.552 50.8631 101.713 51.9684C101.958 53.629 100.872 55.1227 99.3794 55.2763Z" fill="#FDBA7F"/>
    <path d="M98.4435 54.4318C98.4984 54.3521 98.6851 54.3634 98.9707 54.3293C99.2563 54.2951 99.5748 54.1357 99.6627 54.2724C99.7505 54.409 99.6627 54.7733 99.0476 54.853C98.4325 54.9328 98.3776 54.5228 98.4435 54.4318Z" fill="white"/>
    <path d="M94.7264 47.8309C94.9398 46.1099 96.9498 44.9998 98.3861 44.5452C98.7812 44.4149 99.1923 44.3428 99.6071 44.3311C100.74 44.3178 101.839 44.9199 102.556 45.8222C103.149 46.5681 103.35 47.3816 103.585 48.2856C103.604 48.3575 103.938 50.5244 103.539 50.1984C103.587 50.2366 103.631 50.2783 103.679 50.3165C103.903 50.4961 104.052 50.7569 104.095 51.0454C104.138 51.334 104.072 51.6285 103.911 51.8688C103.571 52.3626 102.865 52.454 102.361 52.0464C102.025 51.7765 101.695 51.4991 101.372 51.2144C101.269 51.1233 101.183 51.0144 101.118 50.8929C100.581 51.2035 99.952 51.3003 99.3505 51.1646C98.4927 50.9675 97.6308 50.7899 96.7649 50.6318C96.6476 50.6095 96.5321 50.5783 96.4193 50.5385C96.7307 50.7983 97.1012 50.9728 97.496 51.0456L97.464 51.2294C96.8687 51.1181 96.3303 50.7953 95.9431 50.3174C95.5261 50.0704 95.1887 49.7033 94.9725 49.2614C94.7562 48.8195 94.6707 48.3222 94.7264 47.8309Z" fill="#1E3654"/>
    <path d="M97.7493 50.6793C97.9862 50.6797 98.2218 50.6456 98.4493 50.5781L98.3992 50.4005C97.1894 50.7557 95.8785 50.0657 95.4792 48.8606L95.3064 48.9201C95.6607 49.9884 96.6761 50.6793 97.7493 50.6793Z" fill="#1E3654"/>
    <path d="M101.598 51.9814C101.507 51.9763 101.417 51.9528 101.335 51.9121C101.253 51.8715 101.18 51.8145 101.119 51.7445C101.058 51.6745 101.012 51.5928 100.982 51.5043C100.952 51.4157 100.94 51.3219 100.945 51.2284L100.989 50.4416C100.994 50.348 101.017 50.2563 101.057 50.1719C101.096 50.0875 101.152 50.0119 101.22 49.9496C101.288 49.8873 101.368 49.8394 101.454 49.8088C101.54 49.7782 101.631 49.7654 101.722 49.7711C101.813 49.7762 101.902 49.7998 101.985 49.8404C102.067 49.8811 102.14 49.9381 102.201 50.0081C102.262 50.0781 102.308 50.1597 102.338 50.2483C102.368 50.3369 102.38 50.4306 102.375 50.5242L102.331 51.311C102.326 51.4046 102.303 51.4962 102.263 51.5807C102.223 51.6651 102.168 51.7406 102.1 51.803C102.032 51.8653 101.952 51.9132 101.866 51.9438C101.78 51.9744 101.689 51.9872 101.598 51.9814Z" fill="#FDBA7F"/>
    <path d="M92.2752 62.0927C92.4804 62.2654 92.6134 62.5123 92.6468 62.7827C92.6803 63.0531 92.6116 63.3264 92.455 63.5464C92.2389 63.8524 92.0295 64.1633 91.8267 64.4788C91.6814 64.707 91.4565 64.8692 91.1984 64.9321C90.9402 64.9951 90.6684 64.9539 90.4389 64.8172C89.9671 64.5294 89.834 63.8616 90.1606 63.3492C90.3801 63.0082 90.6065 62.6723 90.8399 62.3413C91.1916 61.844 91.8474 61.7401 92.2752 62.0927Z" fill="#FDBA7F"/>
    <path d="M92.4287 65.7542H94.4672C94.6478 65.7542 94.7628 65.6059 94.7083 65.4425L93.1978 60.9019C93.1723 60.8351 93.1277 60.7778 93.0698 60.7375C93.012 60.6972 92.9436 60.6759 92.8737 60.6764H90.8352C90.6546 60.6764 90.5405 60.8247 90.595 60.9881L92.1046 65.5286C92.1301 65.5955 92.1747 65.6528 92.2326 65.6931C92.2905 65.7334 92.3588 65.7547 92.4287 65.7542Z" fill="#E94050"/>
    <path d="M92.0232 65.7535H94.34C94.3603 65.7557 94.3809 65.7526 94.3998 65.7444C94.4186 65.7363 94.4352 65.7234 94.4479 65.7069C94.4607 65.6905 94.4692 65.671 94.4727 65.6502C94.4761 65.6295 94.4745 65.6082 94.4679 65.5883L92.8735 60.7929C92.8598 60.7574 92.8359 60.7269 92.8051 60.7056C92.7743 60.6842 92.7379 60.6728 92.7007 60.673H90.3839C90.3635 60.6709 90.3429 60.674 90.3241 60.6821C90.3052 60.6903 90.2886 60.7031 90.2759 60.7196C90.2631 60.7361 90.2546 60.7556 90.2512 60.7763C90.2477 60.797 90.2493 60.8183 90.256 60.8382L91.8495 65.6336C91.8633 65.6693 91.8872 65.6998 91.9182 65.7212C91.9492 65.7426 91.9858 65.7539 92.0232 65.7535Z" fill="#273238"/>
    <path d="M92.5303 64.1474C92.6147 63.8888 92.7923 63.6732 93.0267 63.5452C93.2611 63.4172 93.5344 63.3864 93.7902 63.4592C94.1445 63.5586 94.5023 63.6501 94.8609 63.7327C95.12 63.7916 95.3472 63.9502 95.4959 64.176C95.6446 64.4018 95.7034 64.6776 95.6602 64.9467C95.566 65.5026 95.0061 65.8693 94.4228 65.7344C94.035 65.6444 93.6491 65.5458 93.2648 65.4386C92.6876 65.277 92.3609 64.6838 92.5303 64.1474Z" fill="#FDBA7F"/>
    <path d="M95.0174 64.4872C95.2421 64.4152 95.4555 64.0991 95.2818 63.9375C95.1461 63.8114 94.9301 63.6444 94.8221 63.4339C94.7141 63.2235 94.4678 62.9464 94.2543 63.0494C94.0409 63.1524 94.0711 63.529 94.1913 63.7599C94.2716 63.9144 94.3554 64.068 94.4427 64.219C94.5732 64.4481 94.6864 64.5946 95.0174 64.4872Z" fill="#FDBA7F"/>
    <path d="M95.0196 66.0497L95.7726 64.0391L95.304 63.8537L94.551 65.8644L95.0196 66.0497Z" fill="#E94050"/>
    <path d="M104.068 66.1415C104.135 65.7366 104.043 65.3209 103.812 64.9855C103.582 64.65 103.231 64.422 102.838 64.3512L95.6651 63.8752L94.6981 66.1246L102.323 67.4061C102.718 67.4754 103.123 67.3813 103.45 67.1442C103.777 66.9072 103.999 66.5466 104.068 66.1415Z" fill="#3078B9"/>
    <path d="M105.93 90.3865L106.052 80.5293V72.0645C106.052 71.951 106.008 71.8421 105.93 71.7619C105.852 71.6816 105.746 71.6365 105.635 71.6365H94.924C94.8227 71.6366 94.7248 71.6747 94.6489 71.7437C94.573 71.8127 94.5243 71.9079 94.5118 72.0112L93.9069 76.939C93.6143 79.3302 93.4668 81.7379 93.4653 84.1481V90.375C93.4653 90.383 93.4653 90.391 93.4653 90.399L94.5369 110.107C94.5426 110.216 94.5888 110.319 94.666 110.394C94.7431 110.469 94.8454 110.511 94.9517 110.511H97.8414C97.9505 110.511 98.0551 110.467 98.1329 110.389C98.2107 110.31 98.2552 110.203 98.2571 110.091L98.6027 90.3999C98.6027 90.391 98.6027 90.3821 98.6027 90.3732L99.3433 80.9227C99.3517 80.8156 99.3991 80.7157 99.476 80.6428C99.5528 80.5699 99.6535 80.5294 99.7581 80.5293C99.8633 80.5295 99.9646 80.5706 100.042 80.6444C100.119 80.7182 100.165 80.8193 100.173 80.9272L100.829 90.3865L102.502 110.121C102.511 110.227 102.558 110.326 102.635 110.399C102.712 110.471 102.812 110.511 102.917 110.511H105.76C105.815 110.511 105.869 110.5 105.92 110.478C105.971 110.456 106.017 110.424 106.056 110.384C106.094 110.344 106.125 110.296 106.145 110.243C106.166 110.191 106.176 110.135 106.175 110.078L105.93 90.3865Z" fill="#1E3654"/>
    <path d="M94.9607 110.514L92.4918 111.135C92.4575 111.145 92.4277 111.167 92.4079 111.197C92.388 111.227 92.3795 111.264 92.3838 111.3C92.3881 111.337 92.4049 111.37 92.4313 111.395C92.4576 111.419 92.4917 111.433 92.5272 111.434H97.8383C97.8862 111.434 97.9333 111.422 97.9759 111.399C98.0184 111.377 98.055 111.344 98.0825 111.304C98.1101 111.263 98.1278 111.217 98.1342 111.168C98.1405 111.119 98.1354 111.07 98.1191 111.023L97.9394 110.512L94.9607 110.514Z" fill="#1E3654"/>
    <path d="M103.017 110.512L102.269 110.912C102.216 110.94 102.174 110.987 102.149 111.043C102.125 111.099 102.119 111.163 102.133 111.223C102.148 111.283 102.181 111.336 102.228 111.374C102.275 111.413 102.334 111.433 102.394 111.434H105.85C105.903 111.434 105.955 111.421 106.002 111.396C106.049 111.371 106.089 111.335 106.12 111.29C106.15 111.246 106.169 111.195 106.176 111.141C106.183 111.087 106.178 111.033 106.16 110.982L105.995 110.512H103.017Z" fill="#1E3654"/>
    <path d="M105.21 109.357C105.201 109.213 104.346 94.8461 104.224 90.3882C104.107 86.1709 104.21 77.5755 104.224 76.5809C103.251 76.5658 102.532 76.3003 102.087 75.7923C101.925 75.6051 101.801 75.3869 101.721 75.1502C101.642 74.9136 101.608 74.6631 101.623 74.4132L101.804 74.4327C101.783 74.8856 101.933 75.3291 102.224 75.6698C102.647 76.1511 103.348 76.3953 104.317 76.3953H104.408V76.4894C104.408 76.5836 104.285 85.9293 104.408 90.3828C104.532 94.8364 105.385 109.2 105.393 109.345L105.21 109.357Z" fill="#1E3654"/>
    <path d="M103.632 50.2286C103.632 50.2286 104.269 50.44 103.983 50.971C103.81 51.2899 103.047 51.995 102.335 52.0784C103.675 51.1495 103.632 50.2286 103.632 50.2286Z" fill="#3078B9"/>
    <defs>
        <linearGradient id="paint0_linear_370_103317" x1="94.7432" y1="57.9978" x2="94.7432" y2="78.2538" gradientUnits="userSpaceOnUse">
            <stop stop-color="#372E51"/>
            <stop offset="1" stop-color="#291F3D"/>
        </linearGradient>
        <linearGradient id="paint1_linear_370_103317" x1="97.0539" y1="60.4265" x2="97.0539" y2="76.4777" gradientUnits="userSpaceOnUse">
            <stop stop-color="#372E51"/>
            <stop offset="1" stop-color="#291F3D"/>
        </linearGradient>
    </defs>
</svg>