<svg width="36" height="36" viewBox="0 0 36 36" fill="none" xmlns="http://www.w3.org/2000/svg">
<path d="M29.526 28.802H7.36714C4.78901 28.802 2.7002 26.9599 2.7002 24.6941V12.2099C2.7002 9.94418 4.79631 8.10202 7.36714 8.10202H29.526C32.1041 8.10202 34.2002 9.94418 34.2002 12.2099V24.6941C34.1929 26.9599 32.0968 28.802 29.526 28.802ZM7.36714 9.39217C5.5997 9.39217 4.1609 10.6566 4.1609 12.2163V24.7005C4.1609 26.2538 5.5997 27.5247 7.36714 27.5247H29.526C31.2934 27.5247 32.7395 26.2603 32.7395 24.7005V12.2163C32.7395 10.663 31.3007 9.39217 29.526 9.39217H7.36714Z" fill="#1D1D1D"/>
<path d="M33.1949 14.5997H3.43091V16.047H33.1949V14.5997Z" fill="#1D1D1D"/>
<path d="M33.1877 15.3234V12.3925C33.1877 10.236 31.4365 8.4848 29.28 8.4848H7.32425C5.16775 8.4848 3.4165 10.236 3.4165 12.3925V15.3234H33.1877Z" fill="#FED9D5"/>
<path d="M33.9113 16.0471H2.69995V12.3926C2.69995 9.83807 4.77683 7.76118 7.32411 7.76118H29.2798C31.8344 7.76118 33.9113 9.83807 33.9113 12.3926V16.0471ZM4.15449 14.5997H32.4712V12.3926C32.4712 10.6413 31.0456 9.2085 29.2871 9.2085H7.33135C5.5801 9.2085 4.15449 10.6341 4.15449 12.3926V14.5997Z" fill="#1D1D1D"/>
<path d="M11.0293 12.3056C10.6313 12.3056 10.3057 11.98 10.3057 11.582V6.1256C10.3057 5.72759 10.6313 5.40195 11.0293 5.40195C11.4273 5.40195 11.753 5.72759 11.753 6.1256V11.582C11.753 11.98 11.4273 12.3056 11.0293 12.3056Z" fill="#1D1D1D"/>
<path d="M25.5891 12.3056C25.1911 12.3056 24.8655 11.98 24.8655 11.582V6.1256C24.8655 5.72759 25.1911 5.40195 25.5891 5.40195C25.9871 5.40195 26.3128 5.72759 26.3128 6.1256V11.582C26.3128 11.98 25.9871 12.3056 25.5891 12.3056Z" fill="#1D1D1D"/>
<path d="M13.4896 19.8725H8.41677C8.01876 19.8725 7.69312 19.5468 7.69312 19.1488C7.69312 18.7508 8.01876 18.4251 8.41677 18.4251H13.4896C13.8876 18.4251 14.2133 18.7508 14.2133 19.1488C14.2133 19.5468 13.8949 19.8725 13.4896 19.8725Z" fill="#1D1D1D"/>
<path d="M13.4896 24.5979H8.41677C8.01876 24.5979 7.69312 24.2722 7.69312 23.8742C7.69312 23.4762 8.01876 23.1506 8.41677 23.1506H13.4896C13.8876 23.1506 14.2133 23.4762 14.2133 23.8742C14.2133 24.2722 13.8949 24.5979 13.4896 24.5979Z" fill="#1D1D1D"/>
<path d="M27.8998 35.0953C31.8726 35.0953 35.0931 31.8747 35.0931 27.902C35.0931 23.9292 31.8726 20.7087 27.8998 20.7087C23.9271 20.7087 20.7065 23.9292 20.7065 27.902C20.7065 31.8747 23.9271 35.0953 27.8998 35.0953Z" fill="#D63941"/>
<path d="M27.9 21.6154C31.3758 21.6154 34.1866 24.4323 34.1866 27.902C34.1866 31.3777 31.3698 34.1885 27.9 34.1885C24.4243 34.1885 21.6135 31.3717 21.6135 27.902C21.6074 24.4323 24.4243 21.6154 27.9 21.6154ZM27.9 19.802C23.433 19.802 19.8 23.4349 19.8 27.902C19.8 32.3691 23.433 36.002 27.9 36.002C32.3671 36.002 36 32.3691 36 27.902C36 23.4349 32.3671 19.802 27.9 19.802Z" fill="white"/>
<path d="M30.3301 30.2474C30.2153 30.2474 30.1004 30.2172 29.9977 30.1507L27.2957 28.3735V23.6526C27.2957 23.3201 27.5677 23.0481 27.9001 23.0481C28.2326 23.0481 28.5046 23.3201 28.5046 23.6526V27.7207L30.6626 29.1412C30.9407 29.3226 31.0192 29.6973 30.8379 29.9814C30.7231 30.1507 30.5296 30.2474 30.3301 30.2474Z" fill="white"/>
</svg>
